<?xml version="1.0" encoding="utf-8"?>
<!-- Generator: Adobe Illustrator 16.0.0, SVG Export Plug-In . SVG Version: 6.00 Build 0)  -->
<!DOCTYPE svg PUBLIC "-//W3C//DTD SVG 1.1//EN" "http://www.w3.org/Graphics/SVG/1.1/DTD/svg11.dtd">
<svg version="1.1" id="Layer_1" xmlns="http://www.w3.org/2000/svg" xmlns:xlink="http://www.w3.org/1999/xlink" x="0px" y="0px"
	 width="1440px" height="449px" viewBox="0 0 1440 449" enable-background="new 0 0 1440 449" xml:space="preserve">
<g transform="translate(-14)">
	<defs>
		<filter id="Adobe_OpacityMaskFilter" filterUnits="userSpaceOnUse" x="14" y="0" width="1501.122" height="2770.666">
			<feColorMatrix  type="matrix" values="1 0 0 0 0  0 1 0 0 0  0 0 1 0 0  0 0 0 1 0"/>
		</filter>
	</defs>
	<mask maskUnits="userSpaceOnUse" x="14" y="0" width="1501.122" height="2770.666" id="b">
		<g filter="url(#Adobe_OpacityMaskFilter)">
			<path id="a" fill="#FFFFFF" d="M0,0h1454v449H0V0z"/>
		</g>
	</mask>
	<path mask="url(#b)" fill="#181F2B" d="M14,413.954c90.836-5.359,176.206-50.375,256.111-135.046
		C389.968,151.9,364.01,105.164,563.005,148.686C762,192.207,745.05,163.699,873,63.13c127.95-100.57,211-77.554,289,44.667
		c78,122.223,151,162.895,284,207.778c88.667,29.921,92.03,848.285,10.091,2455.09H14V413.956V413.954z"/>
</g>
</svg>
